<svg width="890" height="888" viewBox="0 0 890 888" fill="none" xmlns="http://www.w3.org/2000/svg">
<path d="M879.016 347.837C822.101 108.02 600.174 -36.3996 357.513 7.98391C164.653 43.2547 10.2923 219.527 0.0882633 415.327C-0.684152 430.908 3.4625 433.959 18.5043 433.959C160.791 433.349 302.509 433.593 444.796 433.593C587.083 433.593 729.005 433.268 871.089 434C888.285 434 891.74 428.427 889.301 413.659C885.724 391.732 884.138 369.398 879.016 347.837ZM759.332 397.346C549.642 397.021 339.938 397.021 130.22 397.346C118.43 397.346 117.008 393.766 118.878 383.392C143.961 244.587 257.872 136.415 400.118 116.644C407.436 115.668 414.713 114.122 424.51 112.332C411.623 103.748 412.883 81.4953 426.584 63.5141C435.08 52.5301 445.203 47.7297 457.724 57.656C472.4 69.2908 478.376 100.046 467.562 112.739C502.89 117.539 537.364 123.397 569.724 137.432C679.204 184.908 745.469 267.613 771 383.514C773.48 394.498 770.471 397.387 759.332 397.346Z" fill="white"/>
<path d="M5.29163 513.601C58.4751 832.741 420.676 991.68 690.497 814.069C774.948 758.418 833.214 682.019 867.979 583.084C832.482 583.084 800.198 584.06 767.629 582.718C751.365 581.985 743.233 587.518 735.386 601.797C673.013 717.493 541.152 787.586 415.106 773.347C274.706 757.482 161.833 662.737 125.686 531.908C120.523 513.235 123.735 510.103 142.601 510.103C379.541 510.293 616.495 510.388 853.463 510.388C886.316 510.388 886.316 510.387 889 474.019H38.1857C-1.33596 473.856 -1.33598 473.856 5.29163 513.601Z" fill="white"/>
<path d="M359.781 164.09C347.611 162.832 339.862 175.209 328.097 173.748C300.347 189.371 276.858 210.27 254.788 232.955C220.352 267.249 196.11 310.434 184.765 357.698C183.589 362.406 177.787 371.13 187.646 371.901C205.751 373.444 223.958 373.362 242.049 371.658C251.502 370.684 248.135 356.034 256.248 351.611C279.089 287.17 316.697 230.926 354.954 175.047C357.104 171.76 360.958 169.649 359.781 164.09Z" fill="white"/>
<path d="M327.845 173.867C334.133 171.468 339.65 167.484 345.898 165.125C350.969 163.215 356.121 155.978 361.8 163.052C366.384 168.785 360.38 172.932 357.744 177.079C337.216 208.466 316.933 239.895 298.88 272.827C287.278 294.01 275.756 315.192 266.02 337.31C264.083 343.052 260.618 348.155 256 352.069C267.278 355.525 271.01 348.897 274.945 339.871C301.111 276.202 335.594 217.086 374.417 160.409C377.175 156.343 382.53 153.416 380.583 145C361.151 152.44 343.18 160.531 327.845 173.867Z" fill="white"/>
<path d="M266.069 337.248C275.853 315.141 287.431 293.968 299.09 272.795C317.231 239.878 337.614 208.424 358.242 177.091C360.891 173.027 366.925 168.964 362.318 163.071C356.611 156 351.434 163.071 346.338 165.144C340.06 167.501 334.516 171.483 328.197 173.881C340.019 175.344 347.805 162.949 360.035 164.209C361.217 169.776 357.345 172.012 355.184 175.181C316.742 231.141 278.951 287.466 256 352C260.641 348.088 264.122 342.987 266.069 337.248Z" fill="white"/>
</svg>
